<?xml version="1.0" encoding="utf-8"?>
<!-- Generator: Adobe Illustrator 18.0.0, SVG Export Plug-In . SVG Version: 6.00 Build 0)  -->
<!DOCTYPE svg PUBLIC "-//W3C//DTD SVG 1.1//EN" "http://www.w3.org/Graphics/SVG/1.1/DTD/svg11.dtd">
<svg version="1.1" id="Warstwa_1" xmlns="http://www.w3.org/2000/svg" xmlns:xlink="http://www.w3.org/1999/xlink" x="0px" y="0px"
	 viewBox="0 0 97.5 124.6" enable-background="new 0 0 97.5 124.6" xml:space="preserve">
<g>
	<defs>
		<rect id="SVGID_1_" width="97.5" height="124.6"/>
	</defs>
	<clipPath id="SVGID_2_">
		<use xlink:href="#SVGID_1_"  overflow="visible"/>
	</clipPath>
	<path clip-path="url(#SVGID_2_)" d="M49.1,0L49.1,0c-0.1,0-0.3,0-0.4,0c-0.1,0-0.3,0-0.4,0v0C21.6,0.4,0,22.3,0,49.1
		c0,36.2,42.5,70.6,48.8,75.5c6.2-4.9,48.8-39.3,48.8-75.5C97.5,22.3,75.9,0.4,49.1,0 M49.1,70.3c-14,0-25.4-11.4-25.4-25.4
		c0-14,11.4-25.4,25.4-25.4s25.4,11.4,25.4,25.4C74.5,58.9,63.2,70.3,49.1,70.3"/>
</g>
</svg>
