<?xml version="1.0" encoding="utf-8"?>
<!-- Generator: Adobe Illustrator 18.0.0, SVG Export Plug-In . SVG Version: 6.00 Build 0)  -->
<!DOCTYPE svg PUBLIC "-//W3C//DTD SVG 1.1//EN" "http://www.w3.org/Graphics/SVG/1.1/DTD/svg11.dtd">
<svg version="1.1" id="Warstwa_1" xmlns="http://www.w3.org/2000/svg" xmlns:xlink="http://www.w3.org/1999/xlink" x="0px" y="0px"
	 viewBox="0 0 36 10" enable-background="new 0 0 36 10" xml:space="preserve">
<g>
	<path d="M18,0c-2.8,0-5,2.2-5,5c0,2.8,2.2,5,5,5c2.8,0,5-2.2,5-5C23,2.2,20.8,0,18,0z M31,0c-2.8,0-5,2.2-5,5c0,2.8,2.2,5,5,5
		c2.8,0,5-2.2,5-5C36,2.2,33.8,0,31,0z M5,0C2.2,0,0,2.2,0,5c0,2.8,2.2,5,5,5c2.8,0,5-2.2,5-5C10,2.2,7.8,0,5,0z"/>
</g>
</svg>
