<?xml version="1.0" encoding="utf-8"?>
<!-- Generator: Adobe Illustrator 18.0.0, SVG Export Plug-In . SVG Version: 6.00 Build 0)  -->
<!DOCTYPE svg PUBLIC "-//W3C//DTD SVG 1.1//EN" "http://www.w3.org/Graphics/SVG/1.1/DTD/svg11.dtd">
<svg version="1.1" id="Warstwa_1" xmlns="http://www.w3.org/2000/svg" xmlns:xlink="http://www.w3.org/1999/xlink" x="0px" y="0px"
	 viewBox="0 0 44 28" enable-background="new 0 0 44 28" xml:space="preserve">
<path fill="#010101" d="M0.1,14.5c0.1,0.2,0.3,0.3,0.4,0.4l5.6,1.9c0.1,0,0.2,0,0.3,0c0.4,0,0.7-0.2,0.8-0.5l4.4-12.5L12,3.8
	c1.1,0.4,2.4,0.3,3.4-0.2l0.5-0.3c0.7-0.3,1.5-0.3,2.1-0.1l10.3,3.5c-0.1,0.4-0.3,0.9-0.7,1.2c-0.4,0.3-1.1,0.3-2,0l-4.6-1.5
	c-0.2-0.1-0.4,0-0.7,0c-0.2,0.1-0.4,0.3-0.4,0.5c0,0-0.7,2.3-2.7,3.4c-1.3,0.6-2.9,0.7-4.7,0.1c-0.4-0.1-0.9,0.1-1,0.5
	c-0.1,0.4,0.1,0.9,0.5,1c1.1,0.3,2.1,0.5,3,0.5c1.1,0,2.1-0.2,3-0.7c1.8-0.9,2.8-2.6,3.2-3.6l3.8,1.3c1.4,0.5,2.5,0.4,3.4-0.2
	c1.4-0.9,1.5-2.8,1.5-3c0-0.3-0.2-0.6-0.5-0.8L18.6,1.7c-1.1-0.4-2.4-0.3-3.4,0.2l-0.5,0.3c-0.7,0.3-1.5,0.3-2.2,0.1L11.6,2
	c0,0-0.1,0-0.2-0.1L5.8,0c-0.4-0.1-0.9,0.1-1,0.5L0,13.8C0,14.1,0,14.3,0.1,14.5z M6.1,1.8l4.1,1.3L6,14.9l-4.1-1.3L6.1,1.8z
	 M5.1,13.2c-0.1,0.4-0.6,0.6-1,0.5c-0.4-0.1-0.6-0.6-0.5-0.9c0.1-0.4,0.6-0.6,1-0.5C5,12.5,5.3,12.9,5.1,13.2z M10.8,17l3.9-1.9
	c0.4-0.2,0.6-0.6,0.4-1c-0.2-0.4-0.7-0.6-1.1-0.3l-3.9,1.9c-1.3,0.6-1.8,2.1-1.2,3.3c0.2,0.3,0.4,0.6,0.8,0.9
	c-0.6,0.7-0.7,1.7-0.3,2.6c0.3,0.6,0.8,1,1.5,1.3c0.3,0.1,0.5,0.1,0.8,0.1c0,0.4,0.1,0.8,0.3,1.1c0.4,0.9,1.3,1.4,2.3,1.4
	c0.4,0,0.8-0.1,1.1-0.3l0.6-0.3c0,0.3,0.1,0.6,0.2,0.9c0.4,0.9,1.3,1.4,2.3,1.4c0.4,0,0.8-0.1,1.1-0.3l10.2-4.8
	c2.3-1.1,4.4-2.5,6.3-4.1l2.3-2l5.2-2.5c0.4-0.2,0.6-0.6,0.4-1L37.5,0.7c-0.1-0.2-0.3-0.3-0.4-0.4c-0.2-0.1-0.4,0-0.6,0l-5.4,2.5
	c-0.4,0.2-0.6,0.6-0.4,1L36.8,16l-1.9,1.7c-1.7,1.6-3.7,2.8-5.9,3.8l-10.2,4.8c-0.4,0.2-1,0-1.2-0.4c-0.2-0.4,0-0.9,0.4-1.2l5.7-2.7
	c0.4-0.2,0.6-0.6,0.4-1c-0.2-0.4-0.7-0.6-1.1-0.3l-5.7,2.7l0,0l-2.7,1.3c-0.4,0.2-1,0-1.2-0.4c-0.1-0.2-0.1-0.4,0-0.6
	c0.1-0.2,0.2-0.4,0.4-0.5l2.1-1l0,0l6.1-2.9c0.4-0.2,0.6-0.6,0.4-1c-0.2-0.4-0.7-0.6-1.1-0.3l-6.1,2.9l0,0l-2.1,1l0,0l-1,0.5
	c-0.2,0.1-0.4,0.1-0.7,0c-0.2-0.1-0.4-0.2-0.5-0.4c-0.2-0.4,0-0.9,0.4-1.2l1-0.5l0,0l0,0l2.6-1.3l0,0l4.7-2.2c0.4-0.2,0.6-0.6,0.4-1
	c-0.2-0.4-0.7-0.6-1.1-0.3l-4.7,2.2l0,0l-1.9,0.9l-0.8,0.3c-0.4,0.2-1,0-1.2-0.4C10.1,17.7,10.4,17.2,10.8,17z M36.4,1.9l5.7,11.2
	l-3.9,1.8L32.5,3.7L36.4,1.9z M38.8,13.2c-0.2-0.4,0-0.8,0.4-1c0.4-0.2,0.8,0,1,0.3c0.2,0.4,0,0.8-0.4,1
	C39.5,13.7,39,13.5,38.8,13.2z"/>
</svg>
