<?xml version="1.0" encoding="utf-8"?>
<!-- Generator: Adobe Illustrator 18.0.0, SVG Export Plug-In . SVG Version: 6.00 Build 0)  -->
<!DOCTYPE svg PUBLIC "-//W3C//DTD SVG 1.1//EN" "http://www.w3.org/Graphics/SVG/1.1/DTD/svg11.dtd">
<svg version="1.1" id="Warstwa_1" xmlns="http://www.w3.org/2000/svg" xmlns:xlink="http://www.w3.org/1999/xlink" x="0px" y="0px"
	 viewBox="0 0 887.8 951.6" enable-background="new 0 0 887.8 951.6" xml:space="preserve">
<g>
	<defs>
		<rect id="SVGID_1_" width="887.8" height="951.6"/>
	</defs>
	<clipPath id="SVGID_2_">
		<use xlink:href="#SVGID_1_"  overflow="visible"/>
	</clipPath>
	<path clip-path="url(#SVGID_2_)" fill="#ED2B27" d="M396.5,566.3c-3.9,156.3-62.8,278.6-179.1,373.1c-10.8,8.8-22.7,14.1-36.7,11.6
		c-17.7-3.1-30.4-13.3-34.8-30.8c-4.7-18.7,1.2-34.4,16.8-46.6c56.3-44.2,97.8-99.5,123.1-166.6c74.5-198.2-26.5-419.6-225.2-494
		c-17.5-6.6-31.9-15.5-35-35.3c-5.4-34.2,24.7-58.7,57.9-47.1c40.4,14.1,78.3,33.5,113,58.5c106.5,76.7,171.2,180,193.5,309.4
		C394.1,522.9,394.8,548,396.5,566.3 M542.4,477.9c-24.3-150.3-94.1-275.8-208.7-376.1c-45.6-39.9-96.3-72-151.6-96.7
		c-28-12.5-56.3,1.9-62.1,31.1c-3.8,19.4,7.2,37.3,29.5,47.7c117.2,55,204.8,140.2,261.5,256.6c44.5,91.4,60.7,188.2,50.2,289.2
		c-4.7,45.2-15.5,89.1-31.7,131.6c-8.2,21.6-2.6,41.7,14.1,53.3c23.8,16.7,54.7,6.3,65.7-22.5c26.9-70.4,40-143.4,40.8-234.3
		C548.7,541.6,547.5,509.4,542.4,477.9 M701.1,575c-5.3-20-24.7-31.2-46.5-28.7c-19.5,2.2-35,18.1-36,38.4
		c-2.5,46.8-6.8,93.3-17.3,139.1c-13.2,57.7-33.9,112.6-60.7,165.3c-11.1,21.8-2.7,46.7,17.9,57.3c21.3,11.1,46.5,3.3,58-18.7
		c52.9-101.1,81.4-208.7,87.1-322.7C702.9,595.1,703.7,584.6,701.1,575 M679.8,381.6c-15.7-62.8-38-123.2-70.7-178.9
		c-22.7-38.6-48.7-75.3-74.4-112c-11.8-16.9-33.5-21.1-51.4-13c-18.1,8.2-28.3,27-23.5,47.3c2.1,8.7,7.5,17.1,13,24.3
		c42.3,54.7,76.6,114,100.6,178.9c9.5,25.5,16.5,52,24.7,78c6.8,21.7,26.4,33.3,49.4,29.5c19.7-3.3,34.2-20.8,34.2-44.5
		C681.4,390,680.8,385.8,679.8,381.6 M242,578.7c1.3-27.8-15.5-48-40.6-48.8c-26.8-0.9-43.5,16.9-45,45.6
		c-4.5,90.4-46.3,157.7-125.8,201.4c-4.1,2.3-8.4,4.2-12.2,6.8C3,794.2-3.5,813.1,1.9,831.1c5.3,17.6,20.6,30.3,39.1,29.3
		c10.5-0.6,21.6-3.9,30.8-9c104-57,159.2-145.8,169.4-263.3C241.5,584.9,241.8,581.8,242,578.7 M786.3,216.5
		c-29.1-71.9-67.7-138.8-114.9-200.3C656.9-2.7,631.3-5,612.7,8.9c-18.6,14-22.6,38.5-9.3,58.4c5,7.5,10.6,14.5,15.7,21.8
		c34.5,48.9,63.5,101,86.8,156.1c7.6,18,21.2,27.3,37.6,28.4C776,273.6,797.6,244.3,786.3,216.5 M739.6,950.5
		c18.9,4.3,40.2-5,47-24.1c15.7-44,29.9-88.5,44-133c1.9-5.9,1-13.3-0.6-19.5c-4.7-18.8-20.9-31.2-40.1-31.9
		c-18.9-0.6-35.9,12.1-42.1,31.1c-13,40-26.4,79.8-39.5,119.8c-1.7,5.1-2.4,10.5-2.9,12.5C705.6,929.6,718.7,945.7,739.6,950.5
		 M782.8,56.1c9.6,17.8,18.4,36.3,30.1,52.8c12,17,37.2,19.5,55,8.2c17.6-11.1,25.2-33.2,16.1-52.2C876.3,48.7,867.2,33,857.4,18
		C847.1,2.3,827.6-3.2,809.7,2.6c-17.8,5.8-29.2,21.8-29,44.1C780.9,47.8,780.9,52.5,782.8,56.1"/>
</g>
</svg>
