<?xml version="1.0" encoding="utf-8"?>
<!-- Generator: Adobe Illustrator 18.0.0, SVG Export Plug-In . SVG Version: 6.00 Build 0)  -->
<!DOCTYPE svg PUBLIC "-//W3C//DTD SVG 1.1//EN" "http://www.w3.org/Graphics/SVG/1.1/DTD/svg11.dtd">
<svg version="1.1" id="Warstwa_1" xmlns="http://www.w3.org/2000/svg" xmlns:xlink="http://www.w3.org/1999/xlink" x="0px" y="0px"
	 viewBox="0 0 31 36" enable-background="new 0 0 31 36" xml:space="preserve">
<g>
	<polygon points="18.2,9 18,8.9 18,8.8 	"/>
	<polyline points="19.9,7.9 19.9,8 19.6,7.8 	"/>
	<path d="M19.8,9.4l0.3,0.2l1.9,1.2l-0.3,0.4c-0.4,0.7-0.6,1.5-0.4,2.3c0.2,0.8,0.7,1.5,1.3,1.9c0.7,0.4,1.5,0.6,2.4,0.4
		c0.8-0.2,1.5-0.6,2-1.3l0.3-0.4l3.7,2.4L17.6,36l-3.7-2.4l0.3-0.4c0.4-0.7,0.6-1.5,0.4-2.3c-0.2-0.8-0.7-1.5-1.3-1.9
		c-0.7-0.4-1.6-0.6-2.4-0.4c-0.8,0.2-1.5,0.6-2,1.3l-0.3,0.4l-3.7-2.4l10.8-15.7l2.5-3.7L19.1,9L19.8,9.4z M18.7,9.9l-0.1-0.1
		l-3.2,4.7l-5.9,8.7l-3,4.4l2,1.3c1.1-1.2,2.8-1.7,4.4-1.2c0.4,0.1,0.8,0.3,1.1,0.5c1.8,1.1,2.4,3.3,1.4,5.2l2,1.3l8.4-12.3l0.6-0.8
		l3.2-4.7l-2-1.3c-1.4,1.5-3.7,1.9-5.5,0.8c-1.8-1.1-2.4-3.3-1.4-5.2L18.7,9.9z"/>
	<path d="M19.6,7.8L19,7.4l0.8-2.8L17.4,4c-0.8,1.9-2.9,2.9-5,2.4c-2-0.6-3.4-2.5-3-4.5L7.1,1.3L5.3,7.7l-4,14.2l2.3,0.6
		c0.8-1.9,2.9-2.9,4.9-2.4c0.1,0,0.2,0,0.3,0.1l-0.6,0.9h0c-1.7-0.4-3.4,0.6-3.8,2.1l-0.1,0.5L0,22.5L6.3,0l4.3,1.1l-0.1,0.5
		c-0.2,0.8-0.1,1.6,0.3,2.3c0.4,0.7,1.1,1.2,1.9,1.4c0.8,0.2,1.6,0.1,2.4-0.3c0.7-0.4,1.3-1.1,1.5-1.8l0.1-0.5l4.3,1.1l-1.1,4"/>
	<path d="M26,21.4l-0.6,0.8L24,21.3l0.6-0.8L26,21.4z M21.8,19.9l1.4,0.9l0.5-0.8l-1.4-0.9L21.8,19.9z M19.5,18.4l1.4,0.9l0.6-0.8
		l-1.4-0.9L19.5,18.4z M17.3,17l1.4,0.9l0.6-0.8l-1.4-0.9L17.3,17z M15.1,15.5l1.4,0.9l0.6-0.8l-1.4-0.9L15.1,15.5z"/>
	<polygon points="15.3,9.3 15.1,10.3 13.4,9.8 13.7,8.9 	"/>
	<polygon points="12.7,8.6 12.4,9.6 10.8,9.1 11.1,8.2 	"/>
	<polygon points="10.1,7.9 9.9,8.9 8.2,8.4 8.2,8.4 8.5,7.5 	"/>
	<polygon points="7.5,7.3 7.3,8.2 5.6,7.8 5.9,6.8 	"/>
</g>
</svg>
